# xmcd CD database file
#
# Track frame offsets:
#	150
#	22227
#	43192
#
# Disc length: 817 seconds
#
# Revision: 0
# Processed by: cddbd v1.5PL3 Copyright (c) Steve Scherf et al.
# Submitted via: CDex 1.51
#
DISCID=24032f03
DTITLE=TimeSlip-Rendezvous - 架空の想い出
DYEAR=1997
DGENRE=JPop
TTITLE0=架空の想い出
TTITLE1=DON'T FORGET ME
TTITLE2=NO PROBLEM
EXTD=YEAR: 1997.08.01
EXTT0=
EXTT1=
EXTT2=
PLAYORDER=
